<?xml version="1.0"?>
<svg xmlns="http://www.w3.org/2000/svg" xmlns:xlink="http://www.w3.org/1999/xlink" xmlns:svgjs="http://svgjs.com/svgjs" version="1.1" width="512" height="512" x="0" y="0" viewBox="0 0 512 512" style="enable-background:new 0 0 512 512" xml:space="preserve" class=""><g transform="matrix(-1,2.4492935982947064e-16,2.4492935982947064e-16,1,511.39996337890614,-1.1368683772161603e-13)"><g xmlns="http://www.w3.org/2000/svg"><g><path d="m200 104h16v56h-16z" fill="#000000" data-original="#cc432b" style="" class=""/><path d="m282.343 402.343-21.657 21.657h-36.686v-24h-16v24h-144v-24h-16v24h-24v16h240a8 8 0 0 0 5.657-2.343l24-24z" fill="#000000" data-original="#cc432b" style="" class=""/><path d="m232 80h-48l-144-8v18.858a20 20 0 0 0 21.109 19.969l122.891-6.827h48l122.891 6.827a20 20 0 0 0 21.109-19.969v-18.858z" fill="#ff5400" data-original="#fdbf44" style="" class=""/><path d="m264 192v8h-136v-8l22.993-28.741a30 30 0 0 1 23.426-11.259h53.27a30 30 0 0 1 27.854 18.858z" fill="#ff5400" data-original="#fdbf44" style="" class=""/><path d="m463.4 224-31.4 48-104-8-39.094-58.641a30 30 0 0 0 -24.962-13.359h-71.944l-31.045 99.692a30 30 0 0 1 -24.955 20.308l-104 8-8 8v50a30 30 0 0 0 30 30h180.639a30 30 0 0 0 22.3-9.931l63.061-70.069h128a20 20 0 0 0 19.512-15.61l19.888-88.39z" fill="#222222" data-original="#e64b30" style="" class=""/><circle cx="208" cy="96" fill="#222222" r="24" data-original="#e64b30" style="" class=""/><g><circle cx="248" cy="288" fill="#222222" r="48" data-original="#fef8f7" style="" class=""/><path d="m272 280h-16v-16h-16v16h-16v16h16v16h16v-16h16z" fill="#ff5400" data-original="#fdbf44" style="" class=""/></g><path d="m111.191 192.405.809-.405h88l-33.973 101.919a30 30 0 0 1 -24.955 20.308l-117.072 13.773 8.114-35.16a150 150 0 0 1 79.077-100.435z" fill="#dddddd" data-original="#ffefed" style="" class=""/><path d="m120 344h32v16h-32z" fill="#222222" data-original="#fef8f7" style="" class=""/></g><path d="m338.147 328h48l21.076-57.906-46.693-3.592z" fill="#ff5400" data-original="#fdbf44" style="" class=""/></g></g></svg>
